<svg id="Layer_1" data-name="Layer 1" xmlns="http://www.w3.org/2000/svg" viewBox="0 0 268.3 228.2"><defs><style>.cls-1,.cls-2{fill:#c00;}.cls-1{fill-rule:evenodd;}</style></defs><path class="cls-1" d="M217.1,210.1v18.1h32.6c6.7,0,18.2-4.9,18.6-18.6v-7A18.47,18.47,0,0,0,249.7,184H233.4v-8.4h32.3V157.4h-31c-8,0-18.7,6.6-18.7,18.9v6.3c0,12.3,10.6,18.6,18.7,18.6,22.5.1-5.4,0,15.4,0V210M41.9,205.7s17.5-1.5,17.5-24.1-21.2-24.7-21.2-24.7H0v71.3H19.2V211l16.6,17.2H64.2Zm-7.4-14.6H19.2V174.8H34.6s4.3,1.6,4.3,8.1S34.5,191.1,34.5,191.1Zm72.3-33.7H87.3c-13.9,0-18.6,12.6-18.6,18.6v52.2H88.2V215.7h18.3v12.5h18.9V176C125.4,160.8,111.6,157.4,106.8,157.4Zm-.3,38.1H88.1V178.2s0-3.9,6.1-3.9h6.7c5.4,0,5.5,3.9,5.5,3.9v17.3Z"/><rect class="cls-2" x="134.3" y="157.4" width="20.3" height="70.8"/><polygon class="cls-1" points="183.1 209.9 183.1 157.4 162.9 157.4 162.9 209.9 162.9 228.2 183.1 228.2 210.3 228.2 210.3 209.9 183.1 209.9"/><path class="cls-1" d="M20.9,139.2h79S84.8,70.3,134.8,42.4c10.9-5.3,45.6-25.1,102.4,16.9,1.8-1.5,3.5-2.7,3.5-2.7s-52-51.9-109.9-46.1c-29.1,2.6-64.9,29.1-85.9,64.1S20.9,139.2,20.9,139.2Z"/><path class="cls-1" d="M20.9,139.2h79S84.8,70.3,134.8,42.4c10.9-5.3,45.6-25.1,102.4,16.9,1.8-1.5,3.5-2.7,3.5-2.7s-52-51.9-109.9-46.1c-29.1,2.6-64.9,29.1-85.9,64.1S20.9,139.2,20.9,139.2Z"/><path class="cls-1" d="M20.9,139.2h79S84.8,70.3,134.8,42.4c10.9-5.3,45.6-25.1,102.4,16.9,1.8-1.5,3.5-2.7,3.5-2.7s-52-51.9-109.9-46.1c-29.2,2.6-65,29.1-86,64.1S20.9,139.2,20.9,139.2ZM185.5,16.1l.4-6.7c-.9-.5-3.4-1.7-9.7-3.5l-.4,6.6C179.1,13.6,182.2,14.8,185.5,16.1Z"/><path class="cls-1" d="M176,37.3l-.4,6.3a55.76,55.76,0,0,1,9.9,1.2l.4-6.2A70.81,70.81,0,0,0,176,37.3ZM138.9,6.1h1l-2-6.1a79.79,79.79,0,0,0-9.6.6l1.9,5.9A87.06,87.06,0,0,1,138.9,6.1Zm4.9,36.8,2.3,6.9a63.27,63.27,0,0,1,8.7-3.5l-2.2-6.6A72.55,72.55,0,0,0,143.8,42.9ZM98.4,16.6,93.9,9.7c-2.5,1.3-5.1,2.7-7.8,4.3l4.6,7C93.3,19.4,95.8,17.9,98.4,16.6Zm20.5,45,4.8,7.2a55.53,55.53,0,0,1,5.9-7.1l-4.5-6.8A55.32,55.32,0,0,0,118.9,61.6ZM104.4,93.8l8.1,6.4a79.86,79.86,0,0,1,2.1-11.7l-7.2-5.7A95.08,95.08,0,0,0,104.4,93.8ZM60.6,46.3l-7.1-6.2c-2.6,2.5-5.1,5-7.4,7.5l7.7,6.6A101.27,101.27,0,0,1,60.6,46.3ZM30.4,91,18.9,86.8c-1.9,4.3-4,9.3-5,12L25.4,103C26.7,99.6,28.8,94.7,30.4,91Zm72.5,28.2a101.59,101.59,0,0,0,1.2,12.6l12,4.3a132.17,132.17,0,0,1-2.4-13Z"/></svg>