<svg width="1924.312" height="389.83" viewBox="0 0 1924.312 389.83">
  <defs>
    <clipPath id="clip-path">
      <path id="Path_7" data-name="Path 7" d="M916,4082.026l1924.311-114.1v389.83H916Z" transform="translate(-196.311 526.199)" fill="#4717f6"/>
    </clipPath>
  </defs>
  <g id="Group_3" data-name="Group 3" transform="translate(2864 -4700.819)">
    <path id="Path_9" data-name="Path 9" d="M916,4082.026l1924.311-114.1v389.83H916Z" transform="translate(-3780 732.89)" fill="#4717f6" opacity="0.25"/>
    <g id="Mask_Group_1" data-name="Mask Group 1" transform="translate(-3583.688 206.69)" clip-path="url(#clip-path)">
      <text id="cOMmunication_is_key_connect_with_me_" data-name="cOMmunication is key
connect with me " transform="translate(1403 4595.044)" fill="#fff" font-size="40" font-family="Montserrat-ExtraBold, Montserrat" font-weight="800"><tspan x="17.2" y="39">COMMUNICATION IS KEY</tspan><tspan x="73.48" y="89">CONNECT WITH ME </tspan></text>
      <g id="Path_10" data-name="Path 10" transform="translate(631 4671.044)" fill="none">
        <path d="M199.5,0,399,335H0Z" stroke="none"/>
        <path d="M 199.5 78.17630004882812 L 70.37664794921875 295 L 328.6233520507812 295 L 199.5 78.17630004882812 M 199.5 0 L 399 335 L 0 335 L 199.5 0 Z" stroke="none" fill="#0e0b16"/>
      </g>
      <g id="Path_8" data-name="Path 8" transform="translate(2727.118 4281) rotate(60)" fill="none">
        <path d="M199.5,0,399,335H0Z" stroke="none"/>
        <path d="M 199.5 78.17630004882812 L 70.37664794921875 295 L 328.6233520507812 295 L 199.5 78.17630004882812 M 199.5 0 L 399 335 L 0 335 L 199.5 0 Z" stroke="none" fill="#a239ca"/>
      </g>
    </g>
    <path id="Icon_awesome-linkedin-in" data-name="Icon awesome-linkedin-in" d="M15.669,70H1.156V23.266H15.669ZM8.4,16.891a8.445,8.445,0,1,1,8.4-8.484A8.476,8.476,0,0,1,8.4,16.891ZM69.984,70H55.5V47.25c0-5.422-.109-12.375-7.545-12.375-7.545,0-8.7,5.891-8.7,11.984V70h-14.5V23.266H38.678v6.375h.2c1.938-3.672,6.67-7.547,13.731-7.547C67.3,22.094,70,31.766,70,44.328V70Z" transform="translate(-2054.439 4946.431)"/>
    <path id="Icon_awesome-github" data-name="Icon awesome-github" d="M25.922,62.094c0,.313-.359.563-.812.563-.516.047-.875-.2-.875-.562,0-.312.359-.562.813-.562C25.516,61.484,25.922,61.734,25.922,62.094Zm-4.859-.7c-.109.313.2.672.672.766a.733.733,0,0,0,.969-.312c.094-.312-.2-.672-.672-.812A.8.8,0,0,0,21.063,61.391Zm6.906-.266c-.453.109-.766.406-.719.766.047.313.453.516.922.406.453-.109.766-.406.719-.719C28.844,61.281,28.422,61.078,27.969,61.125ZM38.25,1.25C16.578,1.25,0,17.7,0,39.375A39.173,39.173,0,0,0,26.484,76.75c2,.359,2.7-.875,2.7-1.891,0-.969-.047-6.312-.047-9.594,0,0-10.937,2.344-13.234-4.656,0,0-1.781-4.547-4.344-5.719,0,0-3.578-2.453.25-2.406a8.248,8.248,0,0,1,6.031,4.031c3.422,6.031,9.156,4.3,11.391,3.266a8.684,8.684,0,0,1,2.5-5.266C23,53.547,14.188,52.281,14.188,37.25c0-4.3,1.188-6.453,3.688-9.2a14.763,14.763,0,0,1,.406-10.609c3.266-1.016,10.781,4.219,10.781,4.219a36.913,36.913,0,0,1,19.625,0s7.516-5.25,10.781-4.219a14.756,14.756,0,0,1,.406,10.609c2.5,2.766,4.031,4.922,4.031,9.2,0,15.078-9.2,16.281-17.937,17.266,1.438,1.234,2.656,3.578,2.656,7.25,0,5.266-.047,11.781-.047,13.063,0,1.016.719,2.25,2.7,1.891C66.906,71.531,77.5,56.7,77.5,39.375,77.5,17.7,59.922,1.25,38.25,1.25ZM15.188,55.141c-.2.156-.156.516.109.813.25.25.609.359.813.156.2-.156.156-.516-.109-.812C15.75,55.047,15.391,54.938,15.188,55.141ZM13.5,53.875c-.109.2.047.453.359.609a.465.465,0,0,0,.672-.109c.109-.2-.047-.453-.359-.609C13.859,53.672,13.609,53.719,13.5,53.875Zm5.063,5.563c-.25.2-.156.672.2.969.359.359.813.406,1.016.156.2-.2.109-.672-.2-.969C19.234,59.234,18.766,59.188,18.563,59.438Zm-1.781-2.3c-.25.156-.25.563,0,.922s.672.516.875.359a.713.713,0,0,0,0-.969C17.438,57.094,17.031,56.938,16.781,57.141Z" transform="translate(-1814.939 4942.399)"/>
    <g id="Icon_feather-codepen" data-name="Icon feather-codepen" transform="translate(-1939.689 4943.097)">
      <path id="Path_14" data-name="Path 14" d="M40,6.667,73.333,28.333V51.667L40,73.333,6.667,51.667V28.333Z" fill="none" stroke="#000" stroke-linecap="round" stroke-linejoin="round" stroke-width="6.667"/>
      <path id="Path_15" data-name="Path 15" d="M40,73.333V51.667" fill="none" stroke="#000" stroke-linecap="round" stroke-linejoin="round" stroke-width="6.667"/>
      <path id="Path_16" data-name="Path 16" d="M73.333,28.333,40,51.667,6.667,28.333" fill="none" stroke="#000" stroke-linecap="round" stroke-linejoin="round" stroke-width="6.667"/>
      <path id="Path_17" data-name="Path 17" d="M6.667,51.667,40,28.333,73.333,51.667" fill="none" stroke="#000" stroke-linecap="round" stroke-linejoin="round" stroke-width="6.667"/>
      <path id="Path_18" data-name="Path 18" d="M40,6.667V28.333" fill="none" stroke="#000" stroke-linecap="round" stroke-linejoin="round" stroke-width="6.667"/>
    </g>
    <text id="Made_with_love_by_Bailey_Graham" data-name="Made with love by Bailey Graham" transform="translate(-2066.689 5050.649)" fill="#0e0b16" font-size="20" font-family="Montserrat-Regular, Montserrat"><tspan x="0" y="19">Made with love by Bailey Graham</tspan></text>
  </g>
</svg>
