<svg xmlns="http://www.w3.org/2000/svg" viewBox="0 0 512.09 482.26"><defs><style>.cls-1{fill:#582871;}.cls-2{fill:#8e4e9f;}</style></defs><g id="Layer_2" data-name="Layer 2"><g id="Layer_1-2" data-name="Layer 1"><polygon class="cls-1" points="448.09 293.91 404.26 370.09 314 370.09 359.13 293.91 448.09 293.91"/><polygon class="cls-2" points="188.17 0 232 76.17 322.26 76.17 277.13 0 188.17 0"/><polygon class="cls-1" points="188.17 154.44 225.74 154.44 252.17 109.39 303.3 109.39 322.26 76.17 232 76.17 188.17 154.44"/><polygon class="cls-2" points="251.65 329.91 295.48 406.09 385.74 406.09 340.61 329.91 251.65 329.91"/><polygon class="cls-1" points="512.09 406.09 468.26 482.26 378 482.26 423.13 406.09 512.09 406.09"/><polygon class="cls-1" points="251.65 265.04 289.22 265.04 315.65 220 366.78 220 385.74 186.78 295.48 186.78 251.65 265.04"/><polygon class="cls-2" points="251.65 110.61 295.48 186.78 385.74 186.78 340.61 110.61 251.65 110.61"/><polygon class="cls-2" points="378 329.91 421.83 406.09 512.09 406.09 466.96 329.91 378 329.91"/><polygon class="cls-1" points="385.74 406.09 341.91 482.26 251.65 482.26 296.78 406.09 385.74 406.09"/><polygon class="cls-2" points="314 219.74 357.83 295.91 448.09 295.91 402.96 219.74 314 219.74"/><polygon class="cls-1" points="258.87 406.09 215.04 482.26 124.78 482.26 169.91 406.09 258.87 406.09"/><polygon class="cls-1" points="134.09 406.09 90.26 482.26 0 482.26 45.13 406.09 134.09 406.09"/><polygon class="cls-1" points="195.56 297.04 151.74 373.22 61.48 373.22 106.61 297.04 195.56 297.04"/><polygon class="cls-1" points="168.87 186.78 124.78 265.04 214.78 265.04 233.26 231.83 207.13 186.78 168.87 186.78"/><polygon class="cls-1" points="448.09 295.91 430.09 329.91 378 329.91 358.98 360.92 340.61 329.91 357.83 295.91 448.09 295.91"/><polygon class="cls-2" points="163.65 110.61 124.78 110.61 168.87 186.78 207.13 186.78 225.74 154.44 188.17 154.44 163.65 110.61"/><polygon class="cls-2" points="61.48 219.74 106.61 297.04 195.56 297.04 179.02 265.04 124.78 265.04 97.39 219.74 61.48 219.74"/><polygon class="cls-2" points="134.09 406.09 113.56 373.22 61.48 373.22 34.78 328.42 0 329.91 45.13 406.09 134.09 406.09"/><polygon class="cls-2" points="169.91 406.09 151.74 373.22 177.51 328.42 213.74 328.42 258.87 406.09 169.91 406.09"/></g></g></svg>