<svg xmlns="http://www.w3.org/2000/svg" width="87" height="147" viewBox="0 0 87 147">
  <g id="Group_4" data-name="Group 4" transform="translate(882 -506.213)">
    <g id="Path_83" data-name="Path 83" transform="translate(-882 506.213)" fill="#a239ca">
      <path d="M 43.5 137 C 25.02802848815918 137 10 121.9719696044922 10 103.5 L 10 43.5 C 10 25.02802848815918 25.02802848815918 10 43.5 10 C 61.97196960449219 10 77 25.02802848815918 77 43.5 L 77 103.5 C 77 121.9719696044922 61.97196960449219 137 43.5 137 Z" stroke="none"/>
      <path d="M 43.5 20 C 30.54203796386719 20 20 30.54203796386719 20 43.5 L 20 103.5 C 20 116.4579620361328 30.54203796386719 127 43.5 127 C 56.45796203613281 127 67 116.4579620361328 67 103.5 L 67 43.5 C 67 30.54203796386719 56.45796203613281 20 43.5 20 M 43.5 0 C 67.52438354492188 0 87 19.47561645507812 87 43.5 L 87 103.5 C 87 127.5243835449219 67.52438354492188 147 43.5 147 C 19.47561645507812 147 0 127.5243835449219 0 103.5 L 0 43.5 C 0 19.47561645507812 19.47561645507812 0 43.5 0 Z" stroke="none" fill="#0e0b16"/>
    </g>
    <g id="Ellipse_4" data-name="Ellipse 4" transform="translate(-855 590.213)" fill="#0e0b16" stroke="#707070" stroke-width="1">
      <circle cx="17" cy="17" r="17" stroke="none"/>
      <circle cx="17" cy="17" r="16.5" fill="none"/>
    </g>
  </g>
</svg>
