<svg id="Layer_1" data-name="Layer 1" xmlns="http://www.w3.org/2000/svg" width="548" height="516.078" viewBox="0 0 548 516.078">
  <path id="Path_62" data-name="Path 62" d="M457.493,293.91l-46.9,81.522H314l48.295-81.522Z" transform="translate(22.019 20.61)" fill="#582871"/>
  <path id="Path_63" data-name="Path 63" d="M188.17,0l46.9,81.511h96.589L283.368,0Z" transform="translate(13.195)" fill="#8e4e9f"/>
  <path id="Path_64" data-name="Path 64" d="M188.17,159.929h40.2l28.283-48.209h54.715l20.29-35.55H235.074Z" transform="translate(13.195 5.341)" fill="#582871"/>
  <path id="Path_65" data-name="Path 65" d="M251.65,329.91l46.9,81.522h96.589L346.848,329.91Z" transform="translate(17.647 23.135)" fill="#8e4e9f"/>
  <path id="Path_66" data-name="Path 66" d="M521.493,406.09l-46.9,81.511H378l48.295-81.511Z" transform="translate(26.507 28.477)" fill="#582871"/>
  <path id="Path_67" data-name="Path 67" d="M251.65,270.528h40.2l28.283-48.2h54.715l20.29-35.55H298.554Z" transform="translate(17.647 13.098)" fill="#582871"/>
  <path id="Path_68" data-name="Path 68" d="M378,329.91l46.9,81.522h96.59L473.2,329.91Z" transform="translate(26.507 23.135)" fill="#8e4e9f"/>
  <path id="Path_69" data-name="Path 69" d="M395.143,406.09l-46.9,81.511H251.65l48.295-81.511Z" transform="translate(17.647 28.477)" fill="#582871"/>
  <path id="Path_70" data-name="Path 70" d="M314,219.74l46.9,81.511h96.589L409.2,219.74Z" transform="translate(22.019 15.409)" fill="#8e4e9f"/>
  <path id="Path_71" data-name="Path 71" d="M268.273,406.09l-46.9,81.511H124.78l48.295-81.511Z" transform="translate(8.75 28.477)" fill="#582871"/>
  <path id="Path_72" data-name="Path 72" d="M143.493,406.09,96.589,487.6H0L48.295,406.09Z" transform="translate(0 28.477)" fill="#582871"/>
  <path id="Path_73" data-name="Path 73" d="M204.962,297.04l-46.893,81.522H61.48l48.295-81.522Z" transform="translate(4.311 20.83)" fill="#582871"/>
  <path id="Path_74" data-name="Path 74" d="M171.962,186.78,124.78,270.528h96.311l19.776-35.539L212.9,186.78Z" transform="translate(8.75 13.098)" fill="#582871"/>
  <path id="Path_75" data-name="Path 75" d="M455.627,295.91l-19.262,36.384H380.622l-20.354,33.185L340.61,332.294l18.428-36.384Z" transform="translate(23.885 20.75)" fill="#582871"/>
  <path id="Path_76" data-name="Path 76" d="M166.376,110.61h-41.6l47.182,81.511H212.9l19.915-34.608h-40.2Z" transform="translate(8.75 7.756)" fill="#8e4e9f"/>
  <path id="Path_77" data-name="Path 77" d="M61.48,219.74l48.295,82.721h95.188l-17.7-34.244H129.219L99.908,219.74Z" transform="translate(4.311 15.409)" fill="#8e4e9f"/>
  <path id="Path_78" data-name="Path 78" d="M143.493,411.537l-21.97-35.175H65.791L37.219,328.42,0,330.014l48.295,81.522Z" transform="translate(0 23.03)" fill="#8e4e9f"/>
  <path id="Path_79" data-name="Path 79" d="M171.184,411.537,151.74,376.362l27.577-47.942h38.771l48.295,83.117Z" transform="translate(10.641 23.03)" fill="#8e4e9f"/>
  <path id="Path_80" data-name="Path 80" d="M298.517,192.207,252.17,109.39l94.642,1.306,48.295,81.511Z" transform="translate(17.683 7.671)" fill="#8e4e9f"/>
  <path id="Path_81" data-name="Path 81" d="M306.522,112.469l20.653-36.3L252.17,111.72Z" transform="translate(17.683 5.341)" fill="#582871"/>
</svg>
