<svg xmlns="http://www.w3.org/2000/svg" width="87" height="147" viewBox="0 0 87 147">
  <g id="scroll-down" transform="translate(882 -506.213)">
    <g id="Path_83" data-name="Path 83" transform="translate(-882 506.213)" fill="#a239ca">
      <path d="M 43.5 142 C 38.30034255981445 142 33.25884246826172 140.9827575683594 28.51559066772461 138.9765167236328 C 23.93163681030273 137.0376892089844 19.81377220153809 134.2610015869141 16.27638626098633 130.7236175537109 C 12.73900032043457 127.1862258911133 9.962318420410156 123.0683670043945 8.023477554321289 118.4844055175781 C 6.017250061035156 113.7411575317383 5 108.6996612548828 5 103.5 L 5 43.5 C 5 38.30034255981445 6.017250061035156 33.25884246826172 8.023477554321289 28.51559066772461 C 9.962318420410156 23.93163681030273 12.73900032043457 19.81377220153809 16.27638626098633 16.27638626098633 C 19.81377220153809 12.73900032043457 23.93163681030273 9.962318420410156 28.51559066772461 8.023477554321289 C 33.25884246826172 6.017250061035156 38.30034255981445 5 43.5 5 C 48.69965744018555 5 53.74115753173828 6.017250061035156 58.48440933227539 8.023477554321289 C 63.06836318969727 9.962318420410156 67.18622589111328 12.73900032043457 70.72360992431641 16.27638626098633 C 74.26100158691406 19.81377220153809 77.03768157958984 23.93163681030273 78.97652435302734 28.51559066772461 C 80.98274993896484 33.25884246826172 82 38.30034255981445 82 43.5 L 82 103.5 C 82 108.6996612548828 80.98274993896484 113.7411575317383 78.97652435302734 118.4844055175781 C 77.03768157958984 123.0683670043945 74.26100158691406 127.1862258911133 70.72360992431641 130.7236175537109 C 67.18622589111328 134.2610015869141 63.06836318969727 137.0376892089844 58.48440933227539 138.9765167236328 C 53.74115753173828 140.9827575683594 48.69965744018555 142 43.5 142 Z" stroke="none"/>
      <path d="M 43.5 10 C 25.02803039550781 10 10 25.02803039550781 10 43.5 L 10 103.5 C 10 121.9719696044922 25.02803039550781 137 43.5 137 C 61.97196960449219 137 77 121.9719696044922 77 103.5 L 77 43.5 C 77 25.02803039550781 61.97196960449219 10 43.5 10 M 43.5 0 C 67.52438354492188 0 87 19.47561645507812 87 43.5 L 87 103.5 C 87 127.5243835449219 67.52438354492188 147 43.5 147 C 19.47561645507812 147 0 127.5243835449219 0 103.5 L 0 43.5 C 0 19.47561645507812 19.47561645507812 0 43.5 0 Z" stroke="none" fill="#0e0b16"/>
    </g>
    <g id="Ellipse_4" data-name="Ellipse 4" transform="translate(-861 587.213)" fill="#0e0b16" stroke="#707070" stroke-width="1">
      <ellipse cx="23" cy="22.5" rx="23" ry="22.5" stroke="none"/>
      <ellipse cx="23" cy="22.5" rx="22.5" ry="22" fill="none"/>
    </g>
  </g>
</svg>
